<svg height="480pt" viewBox="0 -28 480 480" width="480pt" xmlns="http://www.w3.org/2000/svg"><path d="m8 384h464v32h-464zm0 0" fill="#9bc9ff"/><path d="m256 200h-32v24h-8v-27.679688c-37.675781-11.847656-61.066406-49.417968-55.074219-88.457031 5.996094-39.035156 39.578125-67.859375 79.074219-67.859375s73.078125 28.824219 79.074219 67.859375c5.992187 39.039063-17.398438 76.609375-55.074219 88.457031v27.679688h-8zm0 0" fill="#9bc9ff"/><g fill="#4f9af5"><path d="m232 0h16v16h-16zm0 0"/><path d="m149.496094 40.804688 11.316406-11.3125 11.3125 11.3125-11.3125 11.316406zm0 0"/><path d="m120 112h16v16h-16zm0 0"/><path d="m149.496094 199.199219 11.316406-11.3125 11.3125 11.3125-11.3125 11.3125zm0 0"/><path d="m307.890625 199.199219 11.3125-11.3125 11.3125 11.3125-11.3125 11.3125zm0 0"/><path d="m344 112h16v16h-16zm0 0"/><path d="m307.890625 40.804688 11.3125-11.3125 11.3125 11.3125-11.3125 11.316406zm0 0"/><path d="m208 201.992188v46.007812c0 8.835938 7.164062 16 16 16h32c8.835938 0 16-7.164062 16-16v-46.007812c39.425781-15.390626 62.3125-56.664063 54.480469-98.257813-7.828125-41.589844-44.15625-71.71875-86.480469-71.71875s-78.652344 30.128906-86.480469 71.71875c-7.832031 41.59375 15.054688 82.867187 54.480469 98.257813zm40 14.007812h-16v-8h16zm-24 32v-16h32v16zm16-200c35.011719.070312 64.898438 25.3125 70.820312 59.820312 5.921876 34.507813-13.835937 68.273438-46.820312 80.011719v-40.519531l21.65625-21.65625-11.3125-11.3125-24 24c-1.5 1.5-2.34375 3.535156-2.34375 5.65625v48h-16v-48c0-2.121094-.84375-4.15625-2.34375-5.65625l-24-24-11.3125 11.3125 21.65625 21.65625v40.519531c-32.984375-11.738281-52.742188-45.503906-46.820312-80.011719 5.921874-34.507812 35.808593-59.75 70.820312-59.820312zm0 0"/><path d="m472 376h-464c-4.417969 0-8 3.582031-8 8v32c0 4.417969 3.582031 8 8 8h464c4.417969 0 8-3.582031 8-8v-32c0-4.417969-3.582031-8-8-8zm-8 32h-448v-16h448zm0 0"/><path d="m328 336h128v-16h-128.726562l-41.488282 3.777344 43.285156-11.777344h126.929688v-16h-128c-.710938 0-1.417969.09375-2.105469.28125l-85.894531 23.429688-85.894531-23.429688c-.6875-.1875-1.394531-.28125-2.105469-.28125h-128v16h126.929688l43.382812 11.832031-42.3125-3.832031h-128v16h127.273438l88 8h.726562.726562zm0 0"/><path d="m456 360v-16h-432v16zm0 0"/></g></svg>