<svg height="503pt" viewBox="0 -16 503.95891 503" width="503pt" xmlns="http://www.w3.org/2000/svg"><path d="m251.980469 16.496094-236 101.144531 236 101.144531 236-101.144531zm0 0" fill="#4370ff"/><path d="m494.300781 102.917969-236-101.117188c-4.03125-1.7617185-8.613281-1.7617185-12.640625 0l-236 101.117188c-5.867187 2.546875-9.660156 8.328125-9.660156 14.722656 0 6.390625 3.792969 12.175781 9.660156 14.71875l108.320313 46.410156v90.585938c0 6.398437 3.8125 12.183593 9.695312 14.707031l118 50.570312c4.023438 1.722657 8.582031 1.722657 12.609375 0l95.695313-41.011718v53.394531l-45.882813 45.882813c-6.25 6.246093-6.25 16.375 0 22.625l50.570313 50.574218c6.246093 6.246094 16.375 6.246094 22.625 0l50.570312-50.574218c6.246094-6.25 6.246094-16.378907 0-22.625l-45.882812-45.882813v-168.632813l.480469.214844 107.839843-46.238281c5.863281-2.542969 9.65625-8.328125 9.65625-14.71875 0-6.394531-3.792969-12.175781-9.65625-14.722656zm-124.320312 329.238281-27.945313-27.945312 27.945313-27.941407 27.945312 27.941407zm-.019531-281.359375-126.386719-54.160156-12.601563 29.402343 123.007813 52.71875v80.046876l-102 43.714843-102-43.714843v-66.320313l95.679687 40.996094c4.039063 1.707031 8.597656 1.707031 12.640625 0l63.679688-27.28125v-6.320313l-33.199219-14.238281-36.800781 15.757813-195.359375-83.757813 195.359375-83.761719 195.359375 83.761719zm0 0"/></svg>