<?xml version="1.0" encoding="UTF-8"?>
<!DOCTYPE svg PUBLIC "-//W3C//DTD SVG 1.1//EN" "http://www.w3.org/Graphics/SVG/1.1/DTD/svg11.dtd">
<!-- Creator: CorelDRAW 2018 (64-Bit) -->
<svg xmlns="http://www.w3.org/2000/svg" xml:space="preserve" width="0.333331in" height="0.333331in" version="1.1" style="shape-rendering:geometricPrecision; text-rendering:geometricPrecision; image-rendering:optimizeQuality; fill-rule:evenodd; clip-rule:evenodd"
viewBox="0 0 3.81 3.81"
 xmlns:xlink="http://www.w3.org/1999/xlink">
 <defs>
  <style type="text/css">
   <![CDATA[
    .fil1 {fill:#AAAAA9}
    .fil0 {fill:#F1F0F0}
   ]]>
  </style>
 </defs>
 <g id="Layer_x0020_1">
  <metadata id="CorelCorpID_0Corel-Layer"/>
  <circle class="fil0" cx="1.9" cy="1.9" r="1.9"/>
  <path class="fil1" d="M3.18 2.69l0 0 0 -0.56 -0.07 -0.44 -0.7 0 0.23 0.17 0 0.27 -0.15 -0.11 0 0.05 -0.04 0 0 0.61 -0.05 0 0 -0.67 0.04 0 0 -0.08 -0.07 0 -0.51 -0.37 -0.49 0.38 -0.06 0 0 0.08 0.05 0 0 0.66 -0.05 0 0 -0.6 -0.05 0 0 -0.03 -0.1 0.09 0 -0.27 0.21 -0.17 -0.72 0 -0.07 0.44 0 0.56 -0.04 0 0 0.21 2.71 0 0 -0.21 -0.08 0zm-2.27 -0.11l-0.24 0 0 -0.13 0.24 0 0 0.13zm0 -0.21l-0.24 0 0 -0.13 0.24 0 0 0.13zm0.1 0.21l0 -0.13 0.24 0 0 0.13 -0.24 0zm0 -0.21l0 -0.13 0.24 0 0 0.13 -0.24 0zm0.87 -0.64c0.05,0 0.1,0.04 0.1,0.1 0,0.05 -0.04,0.1 -0.1,0.1 -0.05,0 -0.1,-0.04 -0.1,-0.1 0,-0.05 0.04,-0.1 0.1,-0.1zm0.39 0.96l-0.05 0 0 -0.6 -0.69 0 0 0.6 -0.05 0 0 -0.66 0.05 0 0 -0.03 0.71 0 0 0.02 0.03 0 0 0.67zm0.46 -0.12l-0.24 0 0 -0.13 0.24 0 0 0.13zm0 -0.21l-0.24 0 0 -0.13 0.24 0 0 0.13zm0.34 0.21l-0.24 0 0 -0.13 0.24 0 0 0.13zm0 -0.21l-0.24 0 0 -0.13 0.24 0 0 0.13zm-1.2 -1.02l-0.01 0 0 -0.4 0.03 0 0 0.01c0.03,0.01 0.12,0.04 0.16,-0.01 0.06,-0.06 0.16,0 0.16,0l0 0.18c0,0 -0.08,-0.07 -0.16,0 -0.06,0.05 -0.13,0.03 -0.16,0.01l0 0.2 0 0 -0.02 0 0.72 0.54 0 0.15 -0.73 -0.54 -0.65 0.54 0 -0.15 0.66 -0.54z"/>
 </g>
</svg>
