<?xml version="1.0" encoding="UTF-8"?>
<!DOCTYPE svg PUBLIC "-//W3C//DTD SVG 1.1//EN" "http://www.w3.org/Graphics/SVG/1.1/DTD/svg11.dtd">
<!-- Creator: CorelDRAW 2018 (64-Bit) -->
<svg xmlns="http://www.w3.org/2000/svg" xml:space="preserve" width="0.333331in" height="0.333331in" version="1.1" style="shape-rendering:geometricPrecision; text-rendering:geometricPrecision; image-rendering:optimizeQuality; fill-rule:evenodd; clip-rule:evenodd"
viewBox="0 0 3.69 3.69"
 xmlns:xlink="http://www.w3.org/1999/xlink">
 <defs>
  <style type="text/css">
   <![CDATA[
    .fil0 {fill:#F1F0F0}
    .fil1 {fill:#AAAAA9;fill-rule:nonzero}
    .fil2 {fill:#F1F0F0;fill-rule:nonzero}
   ]]>
  </style>
 </defs>
 <g id="Layer_x0020_1">
  <metadata id="CorelCorpID_0Corel-Layer"/>
  <circle class="fil0" cx="1.84" cy="1.84" r="1.84"/>
  <path class="fil1" d="M3 2.04l-0.12 0 -0.08 -1.12c-0,-0.02 -0.02,-0.04 -0.04,-0.04l-0.24 0c-0.02,-0 -0.04,0.02 -0.04,0.04l-0.08 1.12 -0.08 0 0 -0.24c0,-0.02 -0.02,-0.04 -0.04,-0.04 -0.01,0 -0.02,0 -0.02,0.01l-0.33 0.27 0 -0.24c0,-0.02 -0.02,-0.04 -0.04,-0.04 -0.01,0 -0.02,0 -0.02,0.01l-0.33 0.27 0 -0.24c0,-0.02 -0.02,-0.04 -0.04,-0.04 -0.01,0 -0.02,0 -0.02,0.01l-0.33 0.27 0 -0.24c-0,-0.02 -0.02,-0.04 -0.04,-0.04 -0.01,0 -0.01,0 -0.02,0.01l-0.4 0.24c-0.01,0.01 -0.02,0.02 -0.02,0.03l0 0.95c0,0.02 0.02,0.04 0.04,0.04l2.3 0c0.02,0 0.04,-0.02 0.04,-0.04l0 -0.91c0,-0.02 -0.02,-0.04 -0.04,-0.04zm-0.99 0.97l0 -0.54 0.27 0 0 0.54 -0.27 0z"/>
  <path class="fil1" d="M2 0.73c0.01,0.01 0.03,0.02 0.04,0.03 0.02,0.03 0.05,0.04 0.09,0.05 0.04,-0 0.07,-0.02 0.09,-0.05 0.01,-0.01 0.02,-0.02 0.03,-0.03 0.01,0 0.03,0.02 0.04,0.03 0.02,0.03 0.05,0.04 0.09,0.05 0.04,-0 0.07,-0.02 0.1,-0.05 0.01,-0.01 0.02,-0.02 0.03,-0.02 0.02,0 0.03,0.01 0.04,0.03 0.02,0.03 0.05,0.05 0.09,0.05 0.02,0 0.04,-0.02 0.04,-0.04 0,-0.02 -0.02,-0.04 -0.04,-0.04 -0.01,0 -0.01,-0 -0.02,-0.02 -0.02,-0.04 -0.06,-0.06 -0.1,-0.06 -0.03,0 -0.06,0.02 -0.08,0.05 -0.01,0.01 -0.04,0.03 -0.04,0.03 -0.01,-0.01 -0.02,-0.02 -0.03,-0.03 -0.02,-0.03 -0.06,-0.05 -0.1,-0.05 -0.03,0 -0.07,0.02 -0.09,0.05 -0.01,0.01 -0.02,0.02 -0.04,0.03 -0.01,-0.01 -0.03,-0.02 -0.04,-0.03 -0.02,-0.03 -0.06,-0.05 -0.09,-0.05 -0.02,-0 -0.04,0.02 -0.04,0.04 -0,0.02 0.02,0.04 0.04,0.04zm0 0z"/>
  <path class="fil2" d="M1.09 2.48l-0.16 0c-0.02,0 -0.04,0.02 -0.04,0.04l0 0.24c0,0.02 0.02,0.04 0.04,0.04l0.16 0c0.02,0 0.04,-0.02 0.04,-0.04l0 -0.24c0,-0.02 -0.02,-0.04 -0.04,-0.04z"/>
  <path class="fil2" d="M1.41 2.48l-0.16 0c-0.02,0 -0.04,0.02 -0.04,0.04l0 0.24c0,0.02 0.02,0.04 0.04,0.04l0.16 0c0.02,0 0.04,-0.02 0.04,-0.04l0 -0.24c0,-0.02 -0.02,-0.04 -0.04,-0.04z"/>
  <path class="fil2" d="M1.72 2.48l-0.16 0c-0.02,0 -0.04,0.02 -0.04,0.04l0 0.24c0,0.02 0.02,0.04 0.04,0.04l0.16 0c0.02,0 0.04,-0.02 0.04,-0.04l0 -0.24c0,-0.02 -0.02,-0.04 -0.04,-0.04z"/>
 </g>
</svg>
